<?xml version="1.0" standalone="no"?>
<!DOCTYPE svg PUBLIC "-//W3C//DTD SVG 20010904//EN"
 "http://www.w3.org/TR/2001/REC-SVG-20010904/DTD/svg10.dtd">
<svg version="1.0" xmlns="http://www.w3.org/2000/svg"
 width="1920.000000pt" height="1080.000000pt" viewBox="0 0 1920.000000 1080.000000"
 preserveAspectRatio="xMidYMid meet">

<g transform="translate(0.000000,1080.000000) scale(0.100000,-0.100000)"
fill="#000000" stroke="none">
<path d="M9385 8074 c-388 -32 -799 -163 -1136 -364 -352 -211 -681 -534 -884
-869 -193 -319 -303 -629 -357 -1011 -17 -120 -16 -493 1 -615 71 -511 274
-968 580 -1312 108 -121 135 -143 60 -47 -268 340 -429 728 -489 1184 -11 79
-16 471 -6 515 2 11 7 45 10 75 48 387 228 812 476 1125 103 129 269 295 296
295 16 0 22 5 18 14 -11 28 228 195 426 298 208 108 407 176 640 219 109 20
157 23 370 24 265 0 357 -10 555 -62 292 -76 596 -230 825 -418 71 -59 238
-224 295 -295 62 -75 160 -221 208 -310 44 -82 111 -243 128 -305 4 -16 14
-55 22 -85 39 -141 51 -243 50 -445 0 -217 -17 -350 -69 -526 -3 -12 6 -21 33
-32 21 -8 117 -54 214 -101 196 -95 224 -118 235 -193 6 -39 3 -55 -17 -92
-30 -55 -76 -81 -144 -81 -27 0 -149 9 -270 20 -121 11 -223 20 -227 20 -4 0
-19 -21 -34 -47 -83 -144 -197 -300 -316 -431 -45 -49 -58 -72 -63 -106 -14
-88 -10 -93 244 -349 130 -131 249 -245 265 -254 41 -21 124 -19 155 5 33 24
133 141 178 209 19 28 52 70 74 92 21 23 39 46 39 51 0 6 9 20 20 32 10 12 17
24 15 28 -6 9 52 101 73 116 8 6 12 16 8 22 -3 6 -1 14 5 18 8 4 9 3 5 -4 -4
-7 -4 -12 -1 -12 7 0 38 68 39 85 2 19 49 125 54 120 3 -3 11 0 19 6 10 9 10
15 2 25 -7 9 -7 19 1 35 34 63 108 287 145 440 44 179 58 308 61 579 4 380
-34 644 -136 945 -17 50 -30 90 -30 90 1 0 -8 20 -18 45 -11 25 -34 79 -51
120 -41 100 -136 270 -226 405 -404 605 -1035 994 -1770 1091 -107 14 -500 26
-600 18z"/>
<path d="M7955 7030 c3 -5 11 -10 16 -10 6 0 7 5 4 10 -3 6 -11 10 -16 10 -6
0 -7 -4 -4 -10z"/>
<path d="M9410 5816 c-123 -27 -225 -108 -283 -225 -30 -61 -32 -72 -32 -171
0 -97 2 -110 31 -170 38 -80 83 -133 150 -176 68 -43 139 -62 259 -69 55 -3
116 -7 135 -10 19 -2 125 -12 235 -20 110 -9 211 -18 225 -20 14 -2 84 -9 155
-15 72 -6 148 -12 170 -15 22 -2 69 -7 105 -10 36 -3 117 -10 180 -15 117 -11
184 -16 300 -26 36 -3 83 -7 105 -10 22 -2 130 -11 240 -19 110 -8 229 -18
265 -21 36 -4 63 -4 60 -2 -3 3 -66 34 -140 68 -74 35 -362 170 -640 300 -278
131 -608 286 -735 345 -126 59 -307 145 -402 191 -211 104 -264 116 -383 90z"/>
<path d="M12237 5649 c-3 -12 -1 -19 5 -17 13 5 20 38 8 38 -4 0 -10 -9 -13
-21z"/>
<path d="M12241 5454 c0 -11 3 -14 6 -6 3 7 2 16 -1 19 -3 4 -6 -2 -5 -13z"/>
<path d="M12243 5414 c-3 -8 -1 -29 5 -47 10 -31 11 -31 9 16 -1 50 -4 57 -14
31z"/>
<path d="M12247 5174 c-3 -3 -3 -12 -1 -19 3 -7 1 -16 -5 -20 -13 -8 -14 -25
-2 -25 5 0 12 14 16 31 7 30 4 44 -8 33z"/>
<path d="M12243 4930 c-1 -11 2 -22 6 -24 4 -3 7 4 6 14 -2 27 -10 33 -12 10z"/>
<path d="M12186 4845 c-9 -26 -7 -32 5 -12 6 10 9 21 6 23 -2 3 -7 -2 -11 -11z"/>
<path d="M12116 4595 c-3 -8 -1 -15 4 -15 6 0 10 7 10 15 0 8 -2 15 -4 15 -2
0 -6 -7 -10 -15z"/>
<path d="M12025 4349 c-9 -17 -15 -33 -13 -35 3 -2 12 12 21 31 21 43 13 47
-8 4z"/>
</g>
</svg>
